# xmcd
#
# Track frame offsets: 
#        150
#        153325
#        207258
#        298963
#
# Disc length: 4317 seconds
#
# Revision: 0
# Processed by: cddbd v1.5.2PL0 Copyright (c) Steve Scherf et al.
# Submitted via: ExactAudioCopy v1.0b1
#
DISCID=3810db04
DTITLE=Rush  - Hallowed Halls - 1977-06-02  
DYEAR=1900
DGENRE=
TTITLE0=Bastille Day-Anthem-Lakeside Park
TTITLE1=2112-Xanadu
TTITLE2=By-Tor and the Snow Dog-The Necromancer-Fly By Night
TTITLE3=In the Mood
EXTD=
EXTT0=
EXTT1=
EXTT2=
EXTT3=
PLAYORDER=
